<?xml version="1.0" encoding="UTF-8" standalone="no"?>
<!-- Created with Inkscape (http://www.inkscape.org/) -->

<svg
   width="159.55234mm"
   height="164.85889mm"
   viewBox="0 0 159.55234 164.85889"
   version="1.1"
   id="svg1"
   sodipodi:docname="lupa.svg"
   inkscape:version="1.3.2 (1:1.3.2+202311252150+091e20ef0f)"
   xmlns:inkscape="http://www.inkscape.org/namespaces/inkscape"
   xmlns:sodipodi="http://sodipodi.sourceforge.net/DTD/sodipodi-0.dtd"
   xmlns="http://www.w3.org/2000/svg"
   xmlns:svg="http://www.w3.org/2000/svg">
  <sodipodi:namedview
     id="namedview1"
     pagecolor="#ffffff"
     bordercolor="#666666"
     borderopacity="1.0"
     inkscape:showpageshadow="2"
     inkscape:pageopacity="0.0"
     inkscape:pagecheckerboard="0"
     inkscape:deskcolor="#d1d1d1"
     inkscape:document-units="mm"
     inkscape:zoom="0.82136644"
     inkscape:cx="208.7984"
     inkscape:cy="409.07442"
     inkscape:window-width="2192"
     inkscape:window-height="1196"
     inkscape:window-x="0"
     inkscape:window-y="0"
     inkscape:window-maximized="1"
     inkscape:current-layer="layer1" />
  <defs
     id="defs1" />
  <g
     inkscape:label="Layer 1"
     inkscape:groupmode="layer"
     id="layer1"
     transform="translate(-23.158934,-62.180049)">
    <path
       style="color:#000000;fill:#ffffff;stroke-width:0.264583;-inkscape-stroke:none"
       d="m 56.471563,116.22993 h 14.243314 v 14.24331 c 0,2.47386 2.024063,4.49792 4.497917,4.49792 2.473854,0 4.497916,-2.02406 4.497916,-4.49792 v -14.24331 h 14.243315 c 2.473854,0 4.497916,-2.02407 4.497916,-4.49792 0,-2.47385 -2.024062,-4.49792 -4.497916,-4.49792 H 79.710975 V 92.99078 c 0,-2.473854 -2.024063,-4.497917 -4.497917,-4.497917 -2.473854,0 -4.497916,2.024063 -4.497916,4.497917 v 14.24331 H 56.471827 c -2.473854,0 -4.497916,2.02407 -4.497916,4.49792 0,2.47385 2.023798,4.49792 4.497652,4.49792 z M 74.763018,62.180051 c -27.437263,0 -49.701875,22.339488 -49.701875,49.701879 0,27.36238 22.264612,49.70187 49.701875,49.70187 9.085318,0 17.555144,-2.46266 24.885303,-6.71794 a 10.95375,10.95375 0 0 0 1.899629,2.77761 l 61.45826,63.27728 a 10.95375,10.95375 0 0 0 15.48949,0.22582 10.95375,10.95375 0 0 0 0.22583,-15.48897 l -61.45826,-63.27779 a 10.95375,10.95375 0 0 0 -2.09342,-1.65572 c 5.8125,-8.12244 9.29556,-18.07072 9.29556,-28.84216 0,-27.362391 -22.26513,-49.701879 -49.702392,-49.701879 z m 0,8.995833 c 22.414685,0 40.706562,18.21648 40.706562,40.706046 0,11.63255 -4.88174,22.11389 -12.69949,29.53049 a 10.95375,10.95375 0 0 0 -0.99632,0.74156 10.95375,10.95375 0 0 0 -0.44338,0.56069 c -7.129758,6.1483 -16.40901,9.8733 -26.567372,9.8733 -22.414682,0 -40.706041,-18.21648 -40.706041,-40.70604 0,-22.489566 18.216482,-40.706046 40.706041,-40.706046 z"
       id="path20" />
    <path
       style="color:#000000;fill:#b1b1b1;stroke-width:0.264583;-inkscape-stroke:none;fill-opacity:1"
       d="m 74.763018,60.777553 c -28.198401,0 -51.104373,22.981323 -51.104373,51.104377 0,28.12305 22.905972,51.10437 51.104373,51.10437 8.837893,0 17.106633,-2.29165 24.35407,-6.24148 0.416891,0.65786 0.874006,1.2895 1.408702,1.8588 l 0.008,0.008 61.46602,63.28605 c 4.74292,4.8834 12.58956,4.99782 17.47283,0.25477 4.88301,-4.74286 4.99743,-12.58911 0.25477,-17.47232 l -61.4629,-63.28191 -0.004,-0.004 c -0.36692,-0.37128 -0.75831,-0.71626 -1.1684,-1.03766 5.48679,-8.12732 8.77569,-17.91023 8.77569,-28.47475 0,-28.123066 -22.90649,-51.104372 -51.104894,-51.104372 z m 0,2.804996 c 26.676072,0 48.299892,21.697725 48.299892,48.299381 0,10.46913 -3.38213,20.12882 -9.03355,28.02619 l -0.8785,1.22784 1.28932,0.78599 c 0.66286,0.40371 1.27407,0.88658 1.82005,1.43816 l 61.45516,63.27469 c 3.68669,3.79593 3.59889,9.81879 -0.19689,13.50563 -3.79599,3.68699 -9.81926,3.5992 -13.50615,-0.19689 l -61.44483,-63.26331 c -0.67236,-0.7165 -1.23012,-1.53235 -1.65364,-2.41898 l -0.65526,-1.37097 -1.314133,0.76274 c -7.127687,4.13774 -15.349561,6.52828 -24.181469,6.52828 -26.67607,0 -48.299376,-21.6977 -48.299376,-48.29937 0,-26.601673 21.623306,-48.299381 48.299376,-48.299381 z m 0,6.190837 c -23.24677,0 -42.10854,18.861767 -42.10854,42.108544 0,23.24988 18.934117,42.10854 42.10854,42.10854 10.501159,0 20.109762,-3.85551 27.483082,-10.21385 l 0.11885,-0.10232 0.093,-0.12609 c 0.0973,-0.13162 0.20048,-0.25856 0.30437,-0.38499 0.25114,-0.20515 0.50907,-0.40174 0.7798,-0.58032 l 0.10335,-0.0682 0.0899,-0.0847 c 8.08485,-7.67 13.13667,-18.52314 13.13667,-30.548 0,-23.249911 -18.934634,-42.108544 -42.109062,-42.108544 z m 0,2.804997 c 21.654899,0 39.304062,17.574373 39.304062,39.303547 0,11.22454 -4.70013,21.32005 -12.23233,28.48146 -0.32974,0.22539 -0.65423,0.45889 -0.96066,0.7152 l -0.093,0.0775 -0.078,0.0925 c -0.1289,0.15249 -0.25021,0.31119 -0.37156,0.46974 -6.875385,5.89705 -15.791028,9.46712 -25.568462,9.46712 -21.654894,0 -39.303543,-17.57435 -39.303543,-39.30354 0,-21.73231 17.57124,-39.303547 39.303543,-39.303547 z m 0.450101,14.512292 c -3.238735,0 -5.900414,2.66116 -5.900414,5.899898 V 105.83165 H 56.471629 c -3.238738,0 -5.899899,2.66168 -5.899899,5.90041 0,3.23864 2.661161,5.8999 5.899899,5.8999 h 12.841076 v 12.84108 c 0,3.23874 2.66116,5.90042 5.899898,5.90042 3.238738,0 5.900415,-2.66168 5.900415,-5.90042 v -12.84108 h 12.841078 c 3.238736,0 5.899896,-2.66116 5.899896,-5.8999 0,-3.23873 -2.66116,-5.90041 -5.899896,-5.90041 H 81.113018 V 92.990573 c 0,-3.238738 -2.661161,-5.899898 -5.899899,-5.899898 z m 0,2.80448 c 1.708968,0 3.095419,1.386451 3.095419,3.095418 v 15.645557 h 15.645558 c 1.708965,0 3.095416,1.38697 3.095416,3.09593 0,1.70897 -1.386451,3.09542 -3.095416,3.09542 H 78.308538 v 15.64556 c 0,1.70897 -1.386967,3.09594 -3.095935,3.09594 -1.708965,0 -3.095418,-1.38697 -3.095418,-3.09594 V 114.82748 H 56.471629 c -1.708965,0 -3.095419,-1.38635 -3.095419,-3.09542 0,-1.70896 1.386454,-3.09593 3.095419,-3.09593 H 72.117185 V 92.990573 c 0,-1.708967 1.386969,-3.095418 3.095934,-3.095418 z"
       id="path21" />
  </g>
</svg>
